<svg viewBox="0 0 48 48" width="148" height="70" fill="#ffff" xmlns="http://www.w3.org/2000/svg">
    <path d="M45.133 43.553c-1.649 0-2.534.37-3.24.33-.706-.04-.825-1.626-2.392-1.579-1.567.046-1.718 1.465-1.718 1.465-1.104-3.175-3.816-3.598-4.522-2.677-.705.92-.767 1.104-1.385 1.104-1.575 0-2.622-5.746-4.789-3.228-2.167 2.517-6.418 4.114-8.47 4.268-2.05.153-1.463-.069-5.557-.72-5.477-.872-9.848.686-13.06 2.269l24-41.57 24 41.57c-.86-.994-1.832-1.232-2.867-1.232z"></path><path d="M45.133 43.553c-1.649 0-2.534.37-3.24.33-.706-.04-.825-1.626-2.392-1.579-1.567.046-1.718 1.465-1.718 1.465-1.104-3.175-3.816-3.598-4.522-2.677-.705.92-.767 1.104-1.385 1.104-1.575 0-2.622-5.746-4.789-3.228-2.167 2.517-6.418 4.114-8.47 4.268-2.05.153-1.463-.069-5.557-.72-5.477-.872-9.848.686-13.06 2.269l24-41.57 24 41.57c-.86-.994-1.832-1.232-2.867-1.232z"></path>
</svg>